soliddart
  facet normal 1.000000000000 -0.000000000000 0.000000000000
    outer loop
      vertex 150.000000000000 128.830249813052 95.438956393337
      vertex 150.000000000000 150.000000000000 15.513686677311
      vertex 150.000000000000 150.000000000000 150.000000000000
    endloop
  endfacet
  facet normal 1.000000000000 0.000000000000 -0.000000000000
    outer loop
      vertex 150.000000000000 128.830249813052 95.438956393337
      vertex 150.000000000000 150.000000000000 150.000000000000
      vertex 150.000000000000 89.733510063530 150.000000000000
    endloop
  endfacet
  facet normal 1.000000000000 0.000000000000 0.000000000000
    outer loop
      vertex 150.000000000000 128.830249813052 95.438956393337
      vertex 150.000000000000 89.733510063530 150.000000000000
      vertex 150.000000000000 134.787173457869 13.028397215005
    endloop
  endfacet
  facet normal 1.000000000000 -0.000000000000 0.000000000000
    outer loop
      vertex 150.000000000000 128.830249813052 95.438956393337
      vertex 150.000000000000 134.787173457869 13.028397215005
      vertex 150.000000000000 150.000000000000 15.513686677311
    endloop
  endfacet
  facet normal -0.000000000000 1.000000000000 0.000000000000
    outer loop
      vertex 128.723033312761 150.000000000000 95.402708661497
      vertex 150.000000000000 150.000000000000 150.000000000000
      vertex 150.000000000000 150.000000000000 15.513686677311
    endloop
  endfacet
  facet normal 0.000000000000 1.000000000000 0.000000000000
    outer loop
      vertex 128.723033312761 150.000000000000 95.402708661497
      vertex 150.000000000000 150.000000000000 15.513686677311
      vertex 134.800920093087 150.000000000000 12.743099572599
    endloop
  endfacet
  facet normal 0.000000000000 1.000000000000 0.000000000000
    outer loop
      vertex 128.723033312761 150.000000000000 95.402708661497
      vertex 134.800920093087 150.000000000000 12.743099572599
      vertex 89.414237758678 150.000000000000 150.000000000000
    endloop
  endfacet
  facet normal 0.000000000000 1.000000000000 -0.000000000000
    outer loop
      vertex 128.723033312761 150.000000000000 95.402708661497
      vertex 89.414237758678 150.000000000000 150.000000000000
      vertex 150.000000000000 150.000000000000 150.000000000000
    endloop
  endfacet
  facet normal 0.000000000000 -0.000000000000 1.000000000000
    outer loop
      vertex 129.804745919559 129.911170021177 150.000000000000
      vertex 150.000000000000 150.000000000000 150.000000000000
      vertex 89.414237758678 150.000000000000 150.000000000000
    endloop
  endfacet
  facet normal 0.000000000000 0.000000000000 1.000000000000
    outer loop
      vertex 129.804745919559 129.911170021177 150.000000000000
      vertex 89.414237758678 150.000000000000 150.000000000000
      vertex 150.000000000000 89.733510063530 150.000000000000
    endloop
  endfacet
  facet normal -0.000000000000 0.000000000000 1.000000000000
    outer loop
      vertex 129.804745919559 129.911170021177 150.000000000000
      vertex 150.000000000000 89.733510063530 150.000000000000
      vertex 150.000000000000 150.000000000000 150.000000000000
    endloop
  endfacet
  facet normal -0.177059193956 -0.158683232019 0.971323670931
    outer loop
      vertex 144.933640031029 144.929057819290 13.761727821638
      vertex 150.000000000000 150.000000000000 15.513686677311
      vertex 134.800920093087 150.000000000000 12.743099572599
    endloop
  endfacet
  facet normal -0.177059193956 -0.158683232019 0.971323670931
    outer loop
      vertex 144.933640031029 144.929057819290 13.761727821638
      vertex 134.800920093087 150.000000000000 12.743099572599
      vertex 150.000000000000 134.787173457869 13.028397215005
    endloop
  endfacet
  facet normal -0.177059193956 -0.158683232019 0.971323670931
    outer loop
      vertex 144.933640031029 144.929057819290 13.761727821638
      vertex 150.000000000000 134.787173457869 13.028397215005
      vertex 150.000000000000 150.000000000000 15.513686677311
    endloop
  endfacet
  facet normal -0.686808361065 -0.690446848865 -0.227106635886
    outer loop
      vertex 128.781925555024 128.895854469422 95.106111470182
      vertex 89.414237758678 150.000000000000 150.000000000000
      vertex 134.800920093087 150.000000000000 12.743099572599
    endloop
  endfacet
  facet normal -0.686808361065 -0.690446848865 -0.227106635886
    outer loop
      vertex 128.781925555024 128.895854469422 95.106111470182
      vertex 134.800920093087 150.000000000000 12.743099572599
      vertex 150.000000000000 134.787173457869 13.028397215005
    endloop
  endfacet
  facet normal -0.686808361065 -0.690446848865 -0.227106635886
    outer loop
      vertex 128.781925555024 128.895854469422 95.106111470182
      vertex 150.000000000000 134.787173457869 13.028397215005
      vertex 150.000000000000 89.733510063530 150.000000000000
    endloop
  endfacet
  facet normal -0.686808361065 -0.690446848865 -0.227106635886
    outer loop
      vertex 128.781925555024 128.895854469422 95.106111470182
      vertex 150.000000000000 89.733510063530 150.000000000000
      vertex 89.414237758678 150.000000000000 150.000000000000
    endloop
  endfacet
endsoliddart
