soliddart
  facet normal 1.000000000000 -0.000000000000 0.000000000000
    outer loop
      vertex 150.000000000000 142.078195936575 6.977678857180
      vertex 150.000000000000 150.000000000000 0.000000000000
      vertex 150.000000000000 150.000000000000 15.513686677311
    endloop
  endfacet
  facet normal 1.000000000000 0.000000000000 -0.000000000000
    outer loop
      vertex 150.000000000000 142.078195936575 6.977678857180
      vertex 150.000000000000 150.000000000000 15.513686677311
      vertex 150.000000000000 134.787173457869 13.028397215005
    endloop
  endfacet
  facet normal 1.000000000000 0.000000000000 0.000000000000
    outer loop
      vertex 150.000000000000 142.078195936575 6.977678857180
      vertex 150.000000000000 134.787173457869 13.028397215005
      vertex 150.000000000000 132.562582616108 -0.000000000000
    endloop
  endfacet
  facet normal 1.000000000000 -0.000000000000 0.000000000000
    outer loop
      vertex 150.000000000000 142.078195936575 6.977678857180
      vertex 150.000000000000 132.562582616108 -0.000000000000
      vertex 150.000000000000 150.000000000000 0.000000000000
    endloop
  endfacet
  facet normal -0.000000000000 1.000000000000 0.000000000000
    outer loop
      vertex 142.131090969740 150.000000000000 6.915315941008
      vertex 150.000000000000 150.000000000000 15.513686677311
      vertex 150.000000000000 150.000000000000 0.000000000000
    endloop
  endfacet
  facet normal 0.000000000000 1.000000000000 0.000000000000
    outer loop
      vertex 142.131090969740 150.000000000000 6.915315941008
      vertex 150.000000000000 150.000000000000 0.000000000000
      vertex 132.633948876198 150.000000000000 -0.000000000000
    endloop
  endfacet
  facet normal 0.000000000000 1.000000000000 -0.000000000000
    outer loop
      vertex 142.131090969740 150.000000000000 6.915315941008
      vertex 132.633948876198 150.000000000000 -0.000000000000
      vertex 134.800920093087 150.000000000000 12.743099572599
    endloop
  endfacet
  facet normal 0.000000000000 1.000000000000 -0.000000000000
    outer loop
      vertex 142.131090969740 150.000000000000 6.915315941008
      vertex 134.800920093087 150.000000000000 12.743099572599
      vertex 150.000000000000 150.000000000000 15.513686677311
    endloop
  endfacet
  facet normal 0.000000000000 0.000000000000 -1.000000000000
    outer loop
      vertex 144.211316292066 144.187527538703 0.000000000000
      vertex 150.000000000000 150.000000000000 0.000000000000
      vertex 150.000000000000 132.562582616108 -0.000000000000
    endloop
  endfacet
  facet normal 0.000000000000 0.000000000000 -1.000000000000
    outer loop
      vertex 144.211316292066 144.187527538703 0.000000000000
      vertex 150.000000000000 132.562582616108 -0.000000000000
      vertex 132.633948876198 150.000000000000 -0.000000000000
    endloop
  endfacet
  facet normal 0.000000000000 0.000000000000 -1.000000000000
    outer loop
      vertex 144.211316292066 144.187527538703 0.000000000000
      vertex 132.633948876198 150.000000000000 -0.000000000000
      vertex 150.000000000000 150.000000000000 0.000000000000
    endloop
  endfacet
  facet normal -0.177059193956 -0.158683232019 0.971323670931
    outer loop
      vertex 144.933640031029 144.929057819290 13.761727821638
      vertex 150.000000000000 150.000000000000 15.513686677311
      vertex 134.800920093087 150.000000000000 12.743099572599
    endloop
  endfacet
  facet normal -0.177059193956 -0.158683232019 0.971323670931
    outer loop
      vertex 144.933640031029 144.929057819290 13.761727821638
      vertex 134.800920093087 150.000000000000 12.743099572599
      vertex 150.000000000000 134.787173457869 13.028397215005
    endloop
  endfacet
  facet normal -0.177059193956 -0.158683232019 0.971323670931
    outer loop
      vertex 144.933640031029 144.929057819290 13.761727821638
      vertex 150.000000000000 134.787173457869 13.028397215005
      vertex 150.000000000000 150.000000000000 15.513686677311
    endloop
  endfacet
  facet normal 0.703467219146 0.700588133131 -0.119624994471
    outer loop
      vertex 141.878623711979 141.792808813386 6.298557841434
      vertex 150.000000000000 134.787173457869 13.028397215005
      vertex 150.000000000000 132.562582616108 -0.000000000000
    endloop
  endfacet
  facet normal 0.703467219146 0.700588133131 -0.119624994471
    outer loop
      vertex 141.878623711979 141.792808813386 6.298557841434
      vertex 150.000000000000 132.562582616108 -0.000000000000
      vertex 132.633948876198 150.000000000000 -0.000000000000
    endloop
  endfacet
  facet normal 0.703467219146 0.700588133131 -0.119624994471
    outer loop
      vertex 141.878623711979 141.792808813386 6.298557841434
      vertex 132.633948876198 150.000000000000 -0.000000000000
      vertex 134.800920093087 150.000000000000 12.743099572599
    endloop
  endfacet
  facet normal 0.703467219146 0.700588133131 -0.119624994471
    outer loop
      vertex 141.878623711979 141.792808813386 6.298557841434
      vertex 134.800920093087 150.000000000000 12.743099572599
      vertex 150.000000000000 134.787173457869 13.028397215005
    endloop
  endfacet
endsoliddart
