soliddart
  facet normal -1.000000000000 -0.000000000000 0.000000000000
    outer loop
      vertex 0.000000000000 50.000000000000 50.000000000000
      vertex 0.000000000000 0.000000000000 0.000000000000
      vertex 0.000000000000 0.000000000000 100.000000000000
    endloop
  endfacet
  facet normal -1.000000000000 0.000000000000 0.000000000000
    outer loop
      vertex 0.000000000000 50.000000000000 50.000000000000
      vertex 0.000000000000 0.000000000000 100.000000000000
      vertex 0.000000000000 100.000000000000 100.000000000000
    endloop
  endfacet
  facet normal -1.000000000000 0.000000000000 0.000000000000
    outer loop
      vertex 0.000000000000 50.000000000000 50.000000000000
      vertex 0.000000000000 100.000000000000 100.000000000000
      vertex 0.000000000000 100.000000000000 0.000000000000
    endloop
  endfacet
  facet normal -1.000000000000 -0.000000000000 -0.000000000000
    outer loop
      vertex 0.000000000000 50.000000000000 50.000000000000
      vertex 0.000000000000 100.000000000000 0.000000000000
      vertex 0.000000000000 0.000000000000 0.000000000000
    endloop
  endfacet
  facet normal 1.000000000000 -0.000000000000 0.000000000000
    outer loop
      vertex 100.000000000000 50.000000000000 50.000000000000
      vertex 100.000000000000 100.000000000000 0.000000000000
      vertex 100.000000000000 100.000000000000 100.000000000000
    endloop
  endfacet
  facet normal 1.000000000000 0.000000000000 -0.000000000000
    outer loop
      vertex 100.000000000000 50.000000000000 50.000000000000
      vertex 100.000000000000 100.000000000000 100.000000000000
      vertex 100.000000000000 0.000000000000 100.000000000000
    endloop
  endfacet
  facet normal 1.000000000000 0.000000000000 0.000000000000
    outer loop
      vertex 100.000000000000 50.000000000000 50.000000000000
      vertex 100.000000000000 0.000000000000 100.000000000000
      vertex 100.000000000000 0.000000000000 0.000000000000
    endloop
  endfacet
  facet normal 1.000000000000 -0.000000000000 0.000000000000
    outer loop
      vertex 100.000000000000 50.000000000000 50.000000000000
      vertex 100.000000000000 0.000000000000 0.000000000000
      vertex 100.000000000000 100.000000000000 0.000000000000
    endloop
  endfacet
  facet normal 0.000000000000 -1.000000000000 0.000000000000
    outer loop
      vertex 50.000000000000 0.000000000000 50.000000000000
      vertex 100.000000000000 0.000000000000 0.000000000000
      vertex 100.000000000000 0.000000000000 100.000000000000
    endloop
  endfacet
  facet normal 0.000000000000 -1.000000000000 0.000000000000
    outer loop
      vertex 50.000000000000 0.000000000000 50.000000000000
      vertex 100.000000000000 0.000000000000 100.000000000000
      vertex 0.000000000000 0.000000000000 100.000000000000
    endloop
  endfacet
  facet normal -0.000000000000 -1.000000000000 -0.000000000000
    outer loop
      vertex 50.000000000000 0.000000000000 50.000000000000
      vertex 0.000000000000 0.000000000000 100.000000000000
      vertex 0.000000000000 0.000000000000 0.000000000000
    endloop
  endfacet
  facet normal 0.000000000000 -1.000000000000 -0.000000000000
    outer loop
      vertex 50.000000000000 0.000000000000 50.000000000000
      vertex 0.000000000000 0.000000000000 0.000000000000
      vertex 100.000000000000 0.000000000000 0.000000000000
    endloop
  endfacet
  facet normal 0.000000000000 1.000000000000 -0.000000000000
    outer loop
      vertex 50.000000000000 100.000000000000 50.000000000000
      vertex 0.000000000000 100.000000000000 100.000000000000
      vertex 100.000000000000 100.000000000000 100.000000000000
    endloop
  endfacet
  facet normal -0.000000000000 1.000000000000 0.000000000000
    outer loop
      vertex 50.000000000000 100.000000000000 50.000000000000
      vertex 100.000000000000 100.000000000000 100.000000000000
      vertex 100.000000000000 100.000000000000 0.000000000000
    endloop
  endfacet
  facet normal 0.000000000000 1.000000000000 0.000000000000
    outer loop
      vertex 50.000000000000 100.000000000000 50.000000000000
      vertex 100.000000000000 100.000000000000 0.000000000000
      vertex 0.000000000000 100.000000000000 0.000000000000
    endloop
  endfacet
  facet normal 0.000000000000 1.000000000000 -0.000000000000
    outer loop
      vertex 50.000000000000 100.000000000000 50.000000000000
      vertex 0.000000000000 100.000000000000 0.000000000000
      vertex 0.000000000000 100.000000000000 100.000000000000
    endloop
  endfacet
  facet normal 0.000000000000 0.000000000000 -1.000000000000
    outer loop
      vertex 50.000000000000 50.000000000000 0.000000000000
      vertex 0.000000000000 100.000000000000 0.000000000000
      vertex 100.000000000000 100.000000000000 0.000000000000
    endloop
  endfacet
  facet normal 0.000000000000 0.000000000000 -1.000000000000
    outer loop
      vertex 50.000000000000 50.000000000000 0.000000000000
      vertex 100.000000000000 100.000000000000 0.000000000000
      vertex 100.000000000000 0.000000000000 0.000000000000
    endloop
  endfacet
  facet normal -0.000000000000 -0.000000000000 -1.000000000000
    outer loop
      vertex 50.000000000000 50.000000000000 0.000000000000
      vertex 100.000000000000 0.000000000000 0.000000000000
      vertex 0.000000000000 0.000000000000 0.000000000000
    endloop
  endfacet
  facet normal -0.000000000000 0.000000000000 -1.000000000000
    outer loop
      vertex 50.000000000000 50.000000000000 0.000000000000
      vertex 0.000000000000 0.000000000000 0.000000000000
      vertex 0.000000000000 100.000000000000 0.000000000000
    endloop
  endfacet
  facet normal -0.000000000000 0.000000000000 1.000000000000
    outer loop
      vertex 50.000000000000 50.000000000000 100.000000000000
      vertex 100.000000000000 0.000000000000 100.000000000000
      vertex 100.000000000000 100.000000000000 100.000000000000
    endloop
  endfacet
  facet normal 0.000000000000 -0.000000000000 1.000000000000
    outer loop
      vertex 50.000000000000 50.000000000000 100.000000000000
      vertex 100.000000000000 100.000000000000 100.000000000000
      vertex 0.000000000000 100.000000000000 100.000000000000
    endloop
  endfacet
  facet normal 0.000000000000 0.000000000000 1.000000000000
    outer loop
      vertex 50.000000000000 50.000000000000 100.000000000000
      vertex 0.000000000000 100.000000000000 100.000000000000
      vertex 0.000000000000 0.000000000000 100.000000000000
    endloop
  endfacet
  facet normal -0.000000000000 0.000000000000 1.000000000000
    outer loop
      vertex 50.000000000000 50.000000000000 100.000000000000
      vertex 0.000000000000 0.000000000000 100.000000000000
      vertex 100.000000000000 0.000000000000 100.000000000000
    endloop
  endfacet
endsoliddart
