soliddart
  facet normal 1.000000000000 0.000000000000 0.000000000000
    outer loop
      vertex 200.000000000000 11.174862804200 186.627383675056
      vertex 200.000000000000 0.000000000000 200.000000000000
      vertex 200.000000000000 -0.000000000000 173.041632350179
    endloop
  endfacet
  facet normal 1.000000000000 0.000000000000 0.000000000000
    outer loop
      vertex 200.000000000000 11.174862804200 186.627383675056
      vertex 200.000000000000 -0.000000000000 173.041632350179
      vertex 200.000000000000 20.195133889530 171.908026482392
    endloop
  endfacet
  facet normal 1.000000000000 -0.000000000000 0.000000000000
    outer loop
      vertex 200.000000000000 11.174862804200 186.627383675056
      vertex 200.000000000000 20.195133889530 171.908026482392
      vertex 200.000000000000 24.064324358570 200.000000000000
    endloop
  endfacet
  facet normal 1.000000000000 0.000000000000 -0.000000000000
    outer loop
      vertex 200.000000000000 11.174862804200 186.627383675056
      vertex 200.000000000000 24.064324358570 200.000000000000
      vertex 200.000000000000 0.000000000000 200.000000000000
    endloop
  endfacet
  facet normal 0.000000000000 -1.000000000000 0.000000000000
    outer loop
      vertex 183.038377646705 0.000000000000 187.681261606846
      vertex 200.000000000000 0.000000000000 200.000000000000
      vertex 165.032105325925 -0.000000000000 200.000000000000
    endloop
  endfacet
  facet normal 0.000000000000 -1.000000000000 -0.000000000000
    outer loop
      vertex 183.038377646705 0.000000000000 187.681261606846
      vertex 165.032105325925 -0.000000000000 200.000000000000
      vertex 164.814267464661 -0.000000000000 177.898963409607
    endloop
  endfacet
  facet normal 0.000000000000 -1.000000000000 0.000000000000
    outer loop
      vertex 183.038377646705 0.000000000000 187.681261606846
      vertex 164.814267464661 -0.000000000000 177.898963409607
      vertex 200.000000000000 -0.000000000000 173.041632350179
    endloop
  endfacet
  facet normal 0.000000000000 -1.000000000000 0.000000000000
    outer loop
      vertex 183.038377646705 0.000000000000 187.681261606846
      vertex 200.000000000000 -0.000000000000 173.041632350179
      vertex 200.000000000000 0.000000000000 200.000000000000
    endloop
  endfacet
  facet normal -0.000000000000 0.000000000000 1.000000000000
    outer loop
      vertex 182.539501206619 12.216247820101 200.000000000000
      vertex 165.032105325925 -0.000000000000 200.000000000000
      vertex 200.000000000000 0.000000000000 200.000000000000
    endloop
  endfacet
  facet normal -0.000000000000 0.000000000000 1.000000000000
    outer loop
      vertex 182.539501206619 12.216247820101 200.000000000000
      vertex 200.000000000000 0.000000000000 200.000000000000
      vertex 200.000000000000 24.064324358570 200.000000000000
    endloop
  endfacet
  facet normal 0.000000000000 -0.000000000000 1.000000000000
    outer loop
      vertex 182.539501206619 12.216247820101 200.000000000000
      vertex 200.000000000000 24.064324358570 200.000000000000
      vertex 165.529916280461 24.910755817237 200.000000000000
    endloop
  endfacet
  facet normal 0.000000000000 0.000000000000 1.000000000000
    outer loop
      vertex 182.539501206619 12.216247820101 200.000000000000
      vertex 165.529916280461 24.910755817237 200.000000000000
      vertex 165.032105325925 -0.000000000000 200.000000000000
    endloop
  endfacet
  facet normal -0.999751841913 0.019978816475 0.009854008528
    outer loop
      vertex 165.158045132004 11.786408848394 188.880672685528
      vertex 164.814267464661 -0.000000000000 177.898963409607
      vertex 165.032105325925 -0.000000000000 200.000000000000
    endloop
  endfacet
  facet normal -0.999751841913 0.019978816475 0.009854008528
    outer loop
      vertex 165.158045132004 11.786408848394 188.880672685528
      vertex 165.032105325925 -0.000000000000 200.000000000000
      vertex 165.529916280461 24.910755817237 200.000000000000
    endloop
  endfacet
  facet normal -0.999751841913 0.019978816475 0.009854008528
    outer loop
      vertex 165.158045132004 11.786408848394 188.880672685528
      vertex 165.529916280461 24.910755817237 200.000000000000
      vertex 165.235301376114 21.698188288276 176.622864131933
    endloop
  endfacet
  facet normal -0.999751841913 0.019978816475 0.009854008528
    outer loop
      vertex 165.158045132004 11.786408848394 188.880672685528
      vertex 165.235301376114 21.698188288276 176.622864131933
      vertex 164.814267464661 -0.000000000000 177.898963409607
    endloop
  endfacet
  facet normal 0.136540480046 0.055519515355 0.989077489747
    outer loop
      vertex 182.301834310843 10.457595696590 174.897821994876
      vertex 164.814267464661 -0.000000000000 177.898963409607
      vertex 200.000000000000 -0.000000000000 173.041632350179
    endloop
  endfacet
  facet normal 0.136540480045 0.055519515355 0.989077489747
    outer loop
      vertex 182.301834310843 10.457595696590 174.897821994876
      vertex 200.000000000000 -0.000000000000 173.041632350179
      vertex 200.000000000000 20.195133889530 171.908026482392
    endloop
  endfacet
  facet normal 0.136540480045 0.055519515355 0.989077489747
    outer loop
      vertex 182.301834310843 10.457595696590 174.897821994876
      vertex 200.000000000000 20.195133889530 171.908026482392
      vertex 165.235301376114 21.698188288276 176.622864131933
    endloop
  endfacet
  facet normal 0.136540480045 0.055519515355 0.989077489747
    outer loop
      vertex 182.301834310843 10.457595696590 174.897821994876
      vertex 165.235301376114 21.698188288276 176.622864131933
      vertex 164.814267464661 -0.000000000000 177.898963409607
    endloop
  endfacet
  facet normal 0.024318692553 0.990354694020 -0.136404476555
    outer loop
      vertex 183.217258456444 22.696508215623 187.076982265994
      vertex 165.529916280461 24.910755817237 200.000000000000
      vertex 200.000000000000 24.064324358570 200.000000000000
    endloop
  endfacet
  facet normal 0.024318692553 0.990354694020 -0.136404476555
    outer loop
      vertex 183.217258456444 22.696508215623 187.076982265994
      vertex 200.000000000000 24.064324358570 200.000000000000
      vertex 200.000000000000 20.195133889530 171.908026482392
    endloop
  endfacet
  facet normal 0.024318692553 0.990354694020 -0.136404476555
    outer loop
      vertex 183.217258456444 22.696508215623 187.076982265994
      vertex 200.000000000000 20.195133889530 171.908026482392
      vertex 165.235301376114 21.698188288276 176.622864131933
    endloop
  endfacet
  facet normal 0.024318692553 0.990354694020 -0.136404476555
    outer loop
      vertex 183.217258456444 22.696508215623 187.076982265994
      vertex 165.235301376114 21.698188288276 176.622864131933
      vertex 165.529916280461 24.910755817237 200.000000000000
    endloop
  endfacet
endsoliddart
