soliddart
  facet normal -1.000000000000 0.000000000000 -0.000000000000
    outer loop
      vertex 0.000000000000 27.929958337307 58.175241952979
      vertex 0.000000000000 0.000000000000 0.000000000000
      vertex -0.000000000000 -0.000000000000 126.929315540153
    endloop
  endfacet
  facet normal -1.000000000000 0.000000000000 0.000000000000
    outer loop
      vertex 0.000000000000 27.929958337307 58.175241952979
      vertex -0.000000000000 -0.000000000000 126.929315540153
      vertex -0.000000000000 43.276683386075 124.124460813594
    endloop
  endfacet
  facet normal -1.000000000000 0.000000000000 -0.000000000000
    outer loop
      vertex 0.000000000000 27.929958337307 58.175241952979
      vertex -0.000000000000 43.276683386075 124.124460813594
      vertex -0.000000000000 67.195121921530 -0.000000000000
    endloop
  endfacet
  facet normal -1.000000000000 0.000000000000 0.000000000000
    outer loop
      vertex 0.000000000000 27.929958337307 58.175241952979
      vertex -0.000000000000 67.195121921530 -0.000000000000
      vertex 0.000000000000 0.000000000000 0.000000000000
    endloop
  endfacet
  facet normal 1.000000000000 -0.000000000000 0.000000000000
    outer loop
      vertex 200.000000000000 19.599683576391 73.223293218804
      vertex 200.000000000000 -0.000000000000 173.041632350179
      vertex 200.000000000000 0.000000000000 0.000000000000
    endloop
  endfacet
  facet normal 1.000000000000 -0.000000000000 -0.000000000000
    outer loop
      vertex 200.000000000000 19.599683576391 73.223293218804
      vertex 200.000000000000 0.000000000000 0.000000000000
      vertex 200.000000000000 53.321332692080 -0.000000000000
    endloop
  endfacet
  facet normal 1.000000000000 0.000000000000 0.000000000000
    outer loop
      vertex 200.000000000000 19.599683576391 73.223293218804
      vertex 200.000000000000 53.321332692080 -0.000000000000
      vertex 200.000000000000 20.195133889530 171.908026482392
    endloop
  endfacet
  facet normal 1.000000000000 0.000000000000 0.000000000000
    outer loop
      vertex 200.000000000000 19.599683576391 73.223293218804
      vertex 200.000000000000 20.195133889530 171.908026482392
      vertex 200.000000000000 -0.000000000000 173.041632350179
    endloop
  endfacet
  facet normal 0.000000000000 -1.000000000000 -0.000000000000
    outer loop
      vertex 105.807127221515 0.000000000000 79.052657237170
      vertex 0.000000000000 0.000000000000 0.000000000000
      vertex 200.000000000000 0.000000000000 0.000000000000
    endloop
  endfacet
  facet normal 0.000000000000 -1.000000000000 -0.000000000000
    outer loop
      vertex 105.807127221515 0.000000000000 79.052657237170
      vertex 200.000000000000 0.000000000000 0.000000000000
      vertex 200.000000000000 -0.000000000000 173.041632350179
    endloop
  endfacet
  facet normal -0.000000000000 -1.000000000000 0.000000000000
    outer loop
      vertex 105.807127221515 0.000000000000 79.052657237170
      vertex 200.000000000000 -0.000000000000 173.041632350179
      vertex 164.814267464661 -0.000000000000 177.898963409607
    endloop
  endfacet
  facet normal 0.000000000000 -1.000000000000 0.000000000000
    outer loop
      vertex 105.807127221515 0.000000000000 79.052657237170
      vertex 164.814267464661 -0.000000000000 177.898963409607
      vertex -0.000000000000 -0.000000000000 126.929315540153
    endloop
  endfacet
  facet normal 0.000000000000 -1.000000000000 0.000000000000
    outer loop
      vertex 105.807127221515 0.000000000000 79.052657237170
      vertex -0.000000000000 -0.000000000000 126.929315540153
      vertex 0.000000000000 0.000000000000 0.000000000000
    endloop
  endfacet
  facet normal -0.000000000000 -0.000000000000 -1.000000000000
    outer loop
      vertex 96.162684651948 30.262208914267 0.000000000000
      vertex 200.000000000000 0.000000000000 0.000000000000
      vertex 0.000000000000 0.000000000000 0.000000000000
    endloop
  endfacet
  facet normal 0.000000000000 -0.000000000000 -1.000000000000
    outer loop
      vertex 96.162684651948 30.262208914267 0.000000000000
      vertex 0.000000000000 0.000000000000 0.000000000000
      vertex -0.000000000000 67.195121921530 -0.000000000000
    endloop
  endfacet
  facet normal 0.000000000000 0.000000000000 -1.000000000000
    outer loop
      vertex 96.162684651948 30.262208914267 0.000000000000
      vertex -0.000000000000 67.195121921530 -0.000000000000
      vertex 200.000000000000 53.321332692080 -0.000000000000
    endloop
  endfacet
  facet normal 0.000000000000 -0.000000000000 -1.000000000000
    outer loop
      vertex 96.162684651948 30.262208914267 0.000000000000
      vertex 200.000000000000 53.321332692080 -0.000000000000
      vertex 200.000000000000 0.000000000000 0.000000000000
    endloop
  endfacet
  facet normal 0.136540480046 0.055519515355 0.989077489747
    outer loop
      vertex 182.301834310843 10.457595696590 174.897821994876
      vertex 164.814267464661 -0.000000000000 177.898963409607
      vertex 200.000000000000 -0.000000000000 173.041632350179
    endloop
  endfacet
  facet normal 0.136540480045 0.055519515355 0.989077489747
    outer loop
      vertex 182.301834310843 10.457595696590 174.897821994876
      vertex 200.000000000000 -0.000000000000 173.041632350179
      vertex 200.000000000000 20.195133889530 171.908026482392
    endloop
  endfacet
  facet normal 0.136540480045 0.055519515355 0.989077489747
    outer loop
      vertex 182.301834310843 10.457595696590 174.897821994876
      vertex 200.000000000000 20.195133889530 171.908026482392
      vertex 165.235301376114 21.698188288276 176.622864131933
    endloop
  endfacet
  facet normal 0.136540480045 0.055519515355 0.989077489747
    outer loop
      vertex 182.301834310843 10.457595696590 174.897821994876
      vertex 165.235301376114 21.698188288276 176.622864131933
      vertex 164.814267464661 -0.000000000000 177.898963409607
    endloop
  endfacet
  facet normal 0.294884679114 -0.061800470689 -0.953532237445
    outer loop
      vertex 73.393701488647 16.849095010727 148.534663845240
      vertex 164.814267464661 -0.000000000000 177.898963409607
      vertex -0.000000000000 -0.000000000000 126.929315540153
    endloop
  endfacet
  facet normal 0.294884679114 -0.061800470689 -0.953532237445
    outer loop
      vertex 73.393701488647 16.849095010727 148.534663845240
      vertex -0.000000000000 -0.000000000000 126.929315540153
      vertex -0.000000000000 43.276683386075 124.124460813594
    endloop
  endfacet
  facet normal 0.294884679114 -0.061800470689 -0.953532237445
    outer loop
      vertex 73.393701488647 16.849095010727 148.534663845240
      vertex -0.000000000000 43.276683386075 124.124460813594
      vertex 165.235301376114 21.698188288276 176.622864131933
    endloop
  endfacet
  facet normal 0.294884679114 -0.061800470689 -0.953532237445
    outer loop
      vertex 73.393701488647 16.849095010727 148.534663845240
      vertex 165.235301376114 21.698188288276 176.622864131933
      vertex 164.814267464661 -0.000000000000 177.898963409607
    endloop
  endfacet
  facet normal -0.067958354025 -0.979665366123 -0.188778792603
    outer loop
      vertex 106.069902262259 44.779116232046 78.143568183933
      vertex 200.000000000000 53.321332692080 -0.000000000000
      vertex 200.000000000000 20.195133889530 171.908026482392
    endloop
  endfacet
  facet normal -0.067958354025 -0.979665366123 -0.188778792603
    outer loop
      vertex 106.069902262259 44.779116232046 78.143568183933
      vertex 200.000000000000 20.195133889530 171.908026482392
      vertex 165.235301376114 21.698188288276 176.622864131933
    endloop
  endfacet
  facet normal -0.067958354025 -0.979665366123 -0.188778792603
    outer loop
      vertex 106.069902262259 44.779116232046 78.143568183933
      vertex 165.235301376114 21.698188288276 176.622864131933
      vertex -0.000000000000 43.276683386075 124.124460813594
    endloop
  endfacet
  facet normal -0.067958354025 -0.979665366123 -0.188778792603
    outer loop
      vertex 106.069902262259 44.779116232046 78.143568183933
      vertex -0.000000000000 43.276683386075 124.124460813594
      vertex -0.000000000000 67.195121921530 -0.000000000000
    endloop
  endfacet
  facet normal -0.067958354025 -0.979665366123 -0.188778792603
    outer loop
      vertex 106.069902262259 44.779116232046 78.143568183933
      vertex -0.000000000000 67.195121921530 -0.000000000000
      vertex 200.000000000000 53.321332692080 -0.000000000000
    endloop
  endfacet
endsoliddart
