soliddart
  facet normal 1.000000000000 0.000000000000 -0.000000000000
    outer loop
      vertex 200.000000000000 178.399129411634 73.461901703634
      vertex 200.000000000000 200.000000000000 0.000000000000
      vertex 200.000000000000 200.000000000000 192.822346474242
    endloop
  endfacet
  facet normal 1.000000000000 0.000000000000 0.000000000000
    outer loop
      vertex 200.000000000000 178.399129411634 73.461901703634
      vertex 200.000000000000 200.000000000000 192.822346474242
      vertex 200.000000000000 190.022848527184 194.340182784567
    endloop
  endfacet
  facet normal 1.000000000000 -0.000000000000 0.000000000000
    outer loop
      vertex 200.000000000000 178.399129411634 73.461901703634
      vertex 200.000000000000 190.022848527184 194.340182784567
      vertex 200.000000000000 136.612452275066 -0.000000000000
    endloop
  endfacet
  facet normal 1.000000000000 0.000000000000 -0.000000000000
    outer loop
      vertex 200.000000000000 178.399129411634 73.461901703634
      vertex 200.000000000000 136.612452275066 -0.000000000000
      vertex 200.000000000000 200.000000000000 0.000000000000
    endloop
  endfacet
  facet normal 0.000000000000 1.000000000000 0.000000000000
    outer loop
      vertex 179.554813829988 200.000000000000 73.431331072238
      vertex 200.000000000000 200.000000000000 192.822346474242
      vertex 200.000000000000 200.000000000000 0.000000000000
    endloop
  endfacet
  facet normal 0.000000000000 1.000000000000 -0.000000000000
    outer loop
      vertex 179.554813829988 200.000000000000 73.431331072238
      vertex 200.000000000000 200.000000000000 0.000000000000
      vertex 140.014328135368 200.000000000000 -0.000000000000
    endloop
  endfacet
  facet normal -0.000000000000 1.000000000000 0.000000000000
    outer loop
      vertex 179.554813829988 200.000000000000 73.431331072238
      vertex 140.014328135368 200.000000000000 -0.000000000000
      vertex 190.467730802386 200.000000000000 193.991942169799
    endloop
  endfacet
  facet normal 0.000000000000 1.000000000000 0.000000000000
    outer loop
      vertex 179.554813829988 200.000000000000 73.431331072238
      vertex 190.467730802386 200.000000000000 193.991942169799
      vertex 200.000000000000 200.000000000000 192.822346474242
    endloop
  endfacet
  facet normal 0.000000000000 0.000000000000 -1.000000000000
    outer loop
      vertex 180.004776045123 178.870817425022 0.000000000000
      vertex 200.000000000000 200.000000000000 0.000000000000
      vertex 200.000000000000 136.612452275066 -0.000000000000
    endloop
  endfacet
  facet normal 0.000000000000 0.000000000000 -1.000000000000
    outer loop
      vertex 180.004776045123 178.870817425022 0.000000000000
      vertex 200.000000000000 136.612452275066 -0.000000000000
      vertex 140.014328135368 200.000000000000 -0.000000000000
    endloop
  endfacet
  facet normal 0.000000000000 0.000000000000 -1.000000000000
    outer loop
      vertex 180.004776045123 178.870817425022 0.000000000000
      vertex 140.014328135368 200.000000000000 -0.000000000000
      vertex 200.000000000000 200.000000000000 0.000000000000
    endloop
  endfacet
  facet normal -0.120420157681 -0.149306288971 -0.981430903170
    outer loop
      vertex 196.822576934129 196.674282842395 193.718157142869
      vertex 200.000000000000 200.000000000000 192.822346474242
      vertex 200.000000000000 190.022848527184 194.340182784567
    endloop
  endfacet
  facet normal -0.120420157681 -0.149306288971 -0.981430903170
    outer loop
      vertex 196.822576934129 196.674282842395 193.718157142869
      vertex 200.000000000000 190.022848527184 194.340182784567
      vertex 190.467730802386 200.000000000000 193.991942169799
    endloop
  endfacet
  facet normal -0.120420157681 -0.149306288971 -0.981430903170
    outer loop
      vertex 196.822576934129 196.674282842395 193.718157142869
      vertex 190.467730802386 200.000000000000 193.991942169799
      vertex 200.000000000000 200.000000000000 192.822346474242
    endloop
  endfacet
  facet normal -0.713705879343 -0.675402791601 0.185620545439
    outer loop
      vertex 179.573335060600 178.414090371450 73.560349523081
      vertex 140.014328135368 200.000000000000 -0.000000000000
      vertex 200.000000000000 136.612452275066 -0.000000000000
    endloop
  endfacet
  facet normal -0.713705879343 -0.675402791601 0.185620545439
    outer loop
      vertex 179.573335060600 178.414090371450 73.560349523081
      vertex 200.000000000000 136.612452275066 -0.000000000000
      vertex 200.000000000000 190.022848527184 194.340182784567
    endloop
  endfacet
  facet normal -0.713705879343 -0.675402791601 0.185620545439
    outer loop
      vertex 179.573335060600 178.414090371450 73.560349523081
      vertex 200.000000000000 190.022848527184 194.340182784567
      vertex 190.467730802386 200.000000000000 193.991942169799
    endloop
  endfacet
  facet normal -0.713705879343 -0.675402791601 0.185620545439
    outer loop
      vertex 179.573335060600 178.414090371450 73.560349523081
      vertex 190.467730802386 200.000000000000 193.991942169799
      vertex 140.014328135368 200.000000000000 -0.000000000000
    endloop
  endfacet
endsoliddart
