soliddart
  facet normal -1.000000000000 0.000000000000 0.000000000000
    outer loop
      vertex 0.000000000000 190.718740802851 190.717830009332
      vertex 0.000000000000 200.000000000000 200.000000000000
      vertex -0.000000000000 200.000000000000 172.153490027997
    endloop
  endfacet
  facet normal -1.000000000000 0.000000000000 0.000000000000
    outer loop
      vertex 0.000000000000 190.718740802851 190.717830009332
      vertex -0.000000000000 200.000000000000 172.153490027997
      vertex -0.000000000000 172.156222408553 200.000000000000
    endloop
  endfacet
  facet normal -1.000000000000 0.000000000000 0.000000000000
    outer loop
      vertex 0.000000000000 190.718740802851 190.717830009332
      vertex -0.000000000000 172.156222408553 200.000000000000
      vertex 0.000000000000 200.000000000000 200.000000000000
    endloop
  endfacet
  facet normal 0.000000000000 1.000000000000 -0.000000000000
    outer loop
      vertex 9.233830840116 200.000000000000 190.717830009332
      vertex 0.000000000000 200.000000000000 200.000000000000
      vertex 27.701492520349 200.000000000000 200.000000000000
    endloop
  endfacet
  facet normal -0.000000000000 1.000000000000 0.000000000000
    outer loop
      vertex 9.233830840116 200.000000000000 190.717830009332
      vertex 27.701492520349 200.000000000000 200.000000000000
      vertex -0.000000000000 200.000000000000 172.153490027997
    endloop
  endfacet
  facet normal 0.000000000000 1.000000000000 -0.000000000000
    outer loop
      vertex 9.233830840116 200.000000000000 190.717830009332
      vertex -0.000000000000 200.000000000000 172.153490027997
      vertex 0.000000000000 200.000000000000 200.000000000000
    endloop
  endfacet
  facet normal -0.000000000000 0.000000000000 1.000000000000
    outer loop
      vertex 9.233830840116 190.718740802851 200.000000000000
      vertex 0.000000000000 200.000000000000 200.000000000000
      vertex -0.000000000000 172.156222408553 200.000000000000
    endloop
  endfacet
  facet normal 0.000000000000 -0.000000000000 1.000000000000
    outer loop
      vertex 9.233830840116 190.718740802851 200.000000000000
      vertex -0.000000000000 172.156222408553 200.000000000000
      vertex 27.701492520349 200.000000000000 200.000000000000
    endloop
  endfacet
  facet normal 0.000000000000 0.000000000000 1.000000000000
    outer loop
      vertex 9.233830840116 190.718740802851 200.000000000000
      vertex 27.701492520349 200.000000000000 200.000000000000
      vertex 0.000000000000 200.000000000000 200.000000000000
    endloop
  endfacet
  facet normal 0.579341070276 -0.576380567338 -0.576324011200
    outer loop
      vertex 9.233830840116 190.718740802851 190.717830009332
      vertex -0.000000000000 172.156222408553 200.000000000000
      vertex -0.000000000000 200.000000000000 172.153490027997
    endloop
  endfacet
  facet normal 0.579341070276 -0.576380567338 -0.576324011200
    outer loop
      vertex 9.233830840116 190.718740802851 190.717830009332
      vertex -0.000000000000 200.000000000000 172.153490027997
      vertex 27.701492520349 200.000000000000 200.000000000000
    endloop
  endfacet
  facet normal 0.579341070276 -0.576380567338 -0.576324011200
    outer loop
      vertex 9.233830840116 190.718740802851 190.717830009332
      vertex 27.701492520349 200.000000000000 200.000000000000
      vertex -0.000000000000 172.156222408553 200.000000000000
    endloop
  endfacet
endsoliddart
