soliddart
  facet normal -1.000000000000 0.000000000000 0.000000000000
    outer loop
      vertex 0.000000000000 24.549940866867 164.083962689681
      vertex -0.000000000000 -0.000000000000 126.929315540153
      vertex 0.000000000000 0.000000000000 200.000000000000
    endloop
  endfacet
  facet normal -1.000000000000 -0.000000000000 0.000000000000
    outer loop
      vertex 0.000000000000 24.549940866867 164.083962689681
      vertex 0.000000000000 0.000000000000 200.000000000000
      vertex -0.000000000000 53.871062997667 200.000000000000
    endloop
  endfacet
  facet normal -1.000000000000 0.000000000000 0.000000000000
    outer loop
      vertex 0.000000000000 24.549940866867 164.083962689681
      vertex -0.000000000000 53.871062997667 200.000000000000
      vertex -0.000000000000 43.276683386075 124.124460813594
    endloop
  endfacet
  facet normal -1.000000000000 0.000000000000 0.000000000000
    outer loop
      vertex 0.000000000000 24.549940866867 164.083962689681
      vertex -0.000000000000 43.276683386075 124.124460813594
      vertex -0.000000000000 -0.000000000000 126.929315540153
    endloop
  endfacet
  facet normal -0.000000000000 -1.000000000000 0.000000000000
    outer loop
      vertex 67.725783957475 0.000000000000 173.938055605880
      vertex 165.032105325925 -0.000000000000 200.000000000000
      vertex 0.000000000000 0.000000000000 200.000000000000
    endloop
  endfacet
  facet normal 0.000000000000 -1.000000000000 0.000000000000
    outer loop
      vertex 67.725783957475 0.000000000000 173.938055605880
      vertex 0.000000000000 0.000000000000 200.000000000000
      vertex -0.000000000000 -0.000000000000 126.929315540153
    endloop
  endfacet
  facet normal 0.000000000000 -1.000000000000 0.000000000000
    outer loop
      vertex 67.725783957475 0.000000000000 173.938055605880
      vertex -0.000000000000 -0.000000000000 126.929315540153
      vertex 164.814267464661 -0.000000000000 177.898963409607
    endloop
  endfacet
  facet normal -0.000000000000 -1.000000000000 0.000000000000
    outer loop
      vertex 67.725783957475 0.000000000000 173.938055605880
      vertex 164.814267464661 -0.000000000000 177.898963409607
      vertex 165.032105325925 -0.000000000000 200.000000000000
    endloop
  endfacet
  facet normal 0.000000000000 0.000000000000 1.000000000000
    outer loop
      vertex 72.535179458115 20.594296448824 200.000000000000
      vertex 0.000000000000 0.000000000000 200.000000000000
      vertex 165.032105325925 -0.000000000000 200.000000000000
    endloop
  endfacet
  facet normal -0.000000000000 0.000000000000 1.000000000000
    outer loop
      vertex 72.535179458115 20.594296448824 200.000000000000
      vertex 165.032105325925 -0.000000000000 200.000000000000
      vertex 165.529916280461 24.910755817237 200.000000000000
    endloop
  endfacet
  facet normal -0.000000000000 -0.000000000000 1.000000000000
    outer loop
      vertex 72.535179458115 20.594296448824 200.000000000000
      vertex 165.529916280461 24.910755817237 200.000000000000
      vertex -0.000000000000 53.871062997667 200.000000000000
    endloop
  endfacet
  facet normal 0.000000000000 0.000000000000 1.000000000000
    outer loop
      vertex 72.535179458115 20.594296448824 200.000000000000
      vertex -0.000000000000 53.871062997667 200.000000000000
      vertex 0.000000000000 0.000000000000 200.000000000000
    endloop
  endfacet
  facet normal -0.999751841913 0.019978816475 0.009854008528
    outer loop
      vertex 165.158045132004 11.786408848394 188.880672685528
      vertex 164.814267464661 -0.000000000000 177.898963409607
      vertex 165.032105325925 -0.000000000000 200.000000000000
    endloop
  endfacet
  facet normal -0.999751841913 0.019978816475 0.009854008528
    outer loop
      vertex 165.158045132004 11.786408848394 188.880672685528
      vertex 165.032105325925 -0.000000000000 200.000000000000
      vertex 165.529916280461 24.910755817237 200.000000000000
    endloop
  endfacet
  facet normal -0.999751841913 0.019978816475 0.009854008528
    outer loop
      vertex 165.158045132004 11.786408848394 188.880672685528
      vertex 165.529916280461 24.910755817237 200.000000000000
      vertex 165.235301376114 21.698188288276 176.622864131933
    endloop
  endfacet
  facet normal -0.999751841913 0.019978816475 0.009854008528
    outer loop
      vertex 165.158045132004 11.786408848394 188.880672685528
      vertex 165.235301376114 21.698188288276 176.622864131933
      vertex 164.814267464661 -0.000000000000 177.898963409607
    endloop
  endfacet
  facet normal 0.294884679114 -0.061800470689 -0.953532237445
    outer loop
      vertex 73.393701488647 16.849095010727 148.534663845240
      vertex 164.814267464661 -0.000000000000 177.898963409607
      vertex -0.000000000000 -0.000000000000 126.929315540153
    endloop
  endfacet
  facet normal 0.294884679114 -0.061800470689 -0.953532237445
    outer loop
      vertex 73.393701488647 16.849095010727 148.534663845240
      vertex -0.000000000000 -0.000000000000 126.929315540153
      vertex -0.000000000000 43.276683386075 124.124460813594
    endloop
  endfacet
  facet normal 0.294884679114 -0.061800470689 -0.953532237445
    outer loop
      vertex 73.393701488647 16.849095010727 148.534663845240
      vertex -0.000000000000 43.276683386075 124.124460813594
      vertex 165.235301376114 21.698188288276 176.622864131933
    endloop
  endfacet
  facet normal 0.294884679114 -0.061800470689 -0.953532237445
    outer loop
      vertex 73.393701488647 16.849095010727 148.534663845240
      vertex 165.235301376114 21.698188288276 176.622864131933
      vertex 164.814267464661 -0.000000000000 177.898963409607
    endloop
  endfacet
  facet normal 0.170730151667 0.975851103231 -0.136256521441
    outer loop
      vertex 68.091979277315 38.171428547144 172.880918942582
      vertex -0.000000000000 53.871062997667 200.000000000000
      vertex 165.529916280461 24.910755817237 200.000000000000
    endloop
  endfacet
  facet normal 0.170730151667 0.975851103231 -0.136256521441
    outer loop
      vertex 68.091979277315 38.171428547144 172.880918942582
      vertex 165.529916280461 24.910755817237 200.000000000000
      vertex 165.235301376114 21.698188288276 176.622864131933
    endloop
  endfacet
  facet normal 0.170730151667 0.975851103231 -0.136256521441
    outer loop
      vertex 68.091979277315 38.171428547144 172.880918942582
      vertex 165.235301376114 21.698188288276 176.622864131933
      vertex -0.000000000000 43.276683386075 124.124460813594
    endloop
  endfacet
  facet normal 0.170730151667 0.975851103231 -0.136256521441
    outer loop
      vertex 68.091979277315 38.171428547144 172.880918942582
      vertex -0.000000000000 43.276683386075 124.124460813594
      vertex -0.000000000000 53.871062997667 200.000000000000
    endloop
  endfacet
endsoliddart
