soliddart
  facet normal -1.000000000000 0.000000000000 0.000000000000
    outer loop
      vertex 0.000000000000 125.345963723571 100.750885418694
      vertex -0.000000000000 53.871062997667 200.000000000000
      vertex -0.000000000000 172.156222408553 200.000000000000
    endloop
  endfacet
  facet normal -1.000000000000 0.000000000000 -0.000000000000
    outer loop
      vertex 0.000000000000 125.345963723571 100.750885418694
      vertex -0.000000000000 172.156222408553 200.000000000000
      vertex -0.000000000000 200.000000000000 172.153490027997
    endloop
  endfacet
  facet normal -1.000000000000 0.000000000000 -0.000000000000
    outer loop
      vertex 0.000000000000 125.345963723571 100.750885418694
      vertex -0.000000000000 200.000000000000 172.153490027997
      vertex 0.000000000000 200.000000000000 0.000000000000
    endloop
  endfacet
  facet normal -1.000000000000 0.000000000000 0.000000000000
    outer loop
      vertex 0.000000000000 125.345963723571 100.750885418694
      vertex 0.000000000000 200.000000000000 0.000000000000
      vertex -0.000000000000 67.195121921530 -0.000000000000
    endloop
  endfacet
  facet normal -1.000000000000 0.000000000000 0.000000000000
    outer loop
      vertex 0.000000000000 125.345963723571 100.750885418694
      vertex -0.000000000000 67.195121921530 -0.000000000000
      vertex -0.000000000000 43.276683386075 124.124460813594
    endloop
  endfacet
  facet normal -1.000000000000 0.000000000000 0.000000000000
    outer loop
      vertex 0.000000000000 125.345963723571 100.750885418694
      vertex -0.000000000000 43.276683386075 124.124460813594
      vertex -0.000000000000 53.871062997667 200.000000000000
    endloop
  endfacet
  facet normal 1.000000000000 0.000000000000 -0.000000000000
    outer loop
      vertex 200.000000000000 99.954927284986 111.574976245828
      vertex 200.000000000000 136.612452275066 -0.000000000000
      vertex 200.000000000000 190.022848527184 194.340182784567
    endloop
  endfacet
  facet normal 1.000000000000 0.000000000000 -0.000000000000
    outer loop
      vertex 200.000000000000 99.954927284986 111.574976245828
      vertex 200.000000000000 190.022848527184 194.340182784567
      vertex 200.000000000000 190.248690797836 200.000000000000
    endloop
  endfacet
  facet normal 1.000000000000 0.000000000000 0.000000000000
    outer loop
      vertex 200.000000000000 99.954927284986 111.574976245828
      vertex 200.000000000000 190.248690797836 200.000000000000
      vertex 200.000000000000 24.064324358570 200.000000000000
    endloop
  endfacet
  facet normal 1.000000000000 -0.000000000000 0.000000000000
    outer loop
      vertex 200.000000000000 99.954927284986 111.574976245828
      vertex 200.000000000000 24.064324358570 200.000000000000
      vertex 200.000000000000 20.195133889530 171.908026482392
    endloop
  endfacet
  facet normal 1.000000000000 -0.000000000000 -0.000000000000
    outer loop
      vertex 200.000000000000 99.954927284986 111.574976245828
      vertex 200.000000000000 20.195133889530 171.908026482392
      vertex 200.000000000000 53.321332692080 -0.000000000000
    endloop
  endfacet
  facet normal 1.000000000000 0.000000000000 -0.000000000000
    outer loop
      vertex 200.000000000000 99.954927284986 111.574976245828
      vertex 200.000000000000 53.321332692080 -0.000000000000
      vertex 200.000000000000 136.612452275066 -0.000000000000
    endloop
  endfacet
  facet normal 0.000000000000 1.000000000000 -0.000000000000
    outer loop
      vertex 84.552226020521 200.000000000000 104.205562099697
      vertex 140.014328135368 200.000000000000 -0.000000000000
      vertex 0.000000000000 200.000000000000 0.000000000000
    endloop
  endfacet
  facet normal -0.000000000000 1.000000000000 -0.000000000000
    outer loop
      vertex 84.552226020521 200.000000000000 104.205562099697
      vertex 0.000000000000 200.000000000000 0.000000000000
      vertex -0.000000000000 200.000000000000 172.153490027997
    endloop
  endfacet
  facet normal -0.000000000000 1.000000000000 0.000000000000
    outer loop
      vertex 84.552226020521 200.000000000000 104.205562099697
      vertex -0.000000000000 200.000000000000 172.153490027997
      vertex 27.701492520349 200.000000000000 200.000000000000
    endloop
  endfacet
  facet normal -0.000000000000 1.000000000000 0.000000000000
    outer loop
      vertex 84.552226020521 200.000000000000 104.205562099697
      vertex 27.701492520349 200.000000000000 200.000000000000
      vertex 190.696460321381 200.000000000000 200.000000000000
    endloop
  endfacet
  facet normal 0.000000000000 1.000000000000 -0.000000000000
    outer loop
      vertex 84.552226020521 200.000000000000 104.205562099697
      vertex 190.696460321381 200.000000000000 200.000000000000
      vertex 190.467730802386 200.000000000000 193.991942169799
    endloop
  endfacet
  facet normal 0.000000000000 1.000000000000 -0.000000000000
    outer loop
      vertex 84.552226020521 200.000000000000 104.205562099697
      vertex 190.467730802386 200.000000000000 193.991942169799
      vertex 140.014328135368 200.000000000000 -0.000000000000
    endloop
  endfacet
  facet normal -0.000000000000 0.000000000000 -1.000000000000
    outer loop
      vertex 95.935955735268 126.509897029641 0.000000000000
      vertex 0.000000000000 200.000000000000 0.000000000000
      vertex 140.014328135368 200.000000000000 -0.000000000000
    endloop
  endfacet
  facet normal 0.000000000000 -0.000000000000 -1.000000000000
    outer loop
      vertex 95.935955735268 126.509897029641 0.000000000000
      vertex 140.014328135368 200.000000000000 -0.000000000000
      vertex 200.000000000000 136.612452275066 -0.000000000000
    endloop
  endfacet
  facet normal 0.000000000000 -0.000000000000 -1.000000000000
    outer loop
      vertex 95.935955735268 126.509897029641 0.000000000000
      vertex 200.000000000000 136.612452275066 -0.000000000000
      vertex 200.000000000000 53.321332692080 -0.000000000000
    endloop
  endfacet
  facet normal 0.000000000000 0.000000000000 -1.000000000000
    outer loop
      vertex 95.935955735268 126.509897029641 0.000000000000
      vertex 200.000000000000 53.321332692080 -0.000000000000
      vertex -0.000000000000 67.195121921530 -0.000000000000
    endloop
  endfacet
  facet normal 0.000000000000 0.000000000000 -1.000000000000
    outer loop
      vertex 95.935955735268 126.509897029641 0.000000000000
      vertex -0.000000000000 67.195121921530 -0.000000000000
      vertex 0.000000000000 200.000000000000 0.000000000000
    endloop
  endfacet
  facet normal 0.000000000000 0.000000000000 1.000000000000
    outer loop
      vertex 104.326643069090 117.156878045507 200.000000000000
      vertex 27.701492520349 200.000000000000 200.000000000000
      vertex -0.000000000000 172.156222408553 200.000000000000
    endloop
  endfacet
  facet normal 0.000000000000 0.000000000000 1.000000000000
    outer loop
      vertex 104.326643069090 117.156878045507 200.000000000000
      vertex -0.000000000000 172.156222408553 200.000000000000
      vertex -0.000000000000 53.871062997667 200.000000000000
    endloop
  endfacet
  facet normal 0.000000000000 0.000000000000 1.000000000000
    outer loop
      vertex 104.326643069090 117.156878045507 200.000000000000
      vertex -0.000000000000 53.871062997667 200.000000000000
      vertex 165.529916280461 24.910755817237 200.000000000000
    endloop
  endfacet
  facet normal 0.000000000000 0.000000000000 1.000000000000
    outer loop
      vertex 104.326643069090 117.156878045507 200.000000000000
      vertex 165.529916280461 24.910755817237 200.000000000000
      vertex 200.000000000000 24.064324358570 200.000000000000
    endloop
  endfacet
  facet normal -0.000000000000 0.000000000000 1.000000000000
    outer loop
      vertex 104.326643069090 117.156878045507 200.000000000000
      vertex 200.000000000000 24.064324358570 200.000000000000
      vertex 200.000000000000 190.248690797836 200.000000000000
    endloop
  endfacet
  facet normal 0.000000000000 -0.000000000000 1.000000000000
    outer loop
      vertex 104.326643069090 117.156878045507 200.000000000000
      vertex 200.000000000000 190.248690797836 200.000000000000
      vertex 190.696460321381 200.000000000000 200.000000000000
    endloop
  endfacet
  facet normal 0.000000000000 -0.000000000000 1.000000000000
    outer loop
      vertex 104.326643069090 117.156878045507 200.000000000000
      vertex 190.696460321381 200.000000000000 200.000000000000
      vertex 27.701492520349 200.000000000000 200.000000000000
    endloop
  endfacet
  facet normal 0.579341070276 -0.576380567338 -0.576324011200
    outer loop
      vertex 9.233830840116 190.718740802851 190.717830009332
      vertex -0.000000000000 172.156222408553 200.000000000000
      vertex -0.000000000000 200.000000000000 172.153490027997
    endloop
  endfacet
  facet normal 0.579341070276 -0.576380567338 -0.576324011200
    outer loop
      vertex 9.233830840116 190.718740802851 190.717830009332
      vertex -0.000000000000 200.000000000000 172.153490027997
      vertex 27.701492520349 200.000000000000 200.000000000000
    endloop
  endfacet
  facet normal 0.579341070276 -0.576380567338 -0.576324011200
    outer loop
      vertex 9.233830840116 190.718740802851 190.717830009332
      vertex 27.701492520349 200.000000000000 200.000000000000
      vertex -0.000000000000 172.156222408553 200.000000000000
    endloop
  endfacet
  facet normal 0.024318692553 0.990354694020 -0.136404476555
    outer loop
      vertex 183.217258456444 22.696508215623 187.076982265994
      vertex 165.529916280461 24.910755817237 200.000000000000
      vertex 200.000000000000 24.064324358570 200.000000000000
    endloop
  endfacet
  facet normal 0.024318692553 0.990354694020 -0.136404476555
    outer loop
      vertex 183.217258456444 22.696508215623 187.076982265994
      vertex 200.000000000000 24.064324358570 200.000000000000
      vertex 200.000000000000 20.195133889530 171.908026482392
    endloop
  endfacet
  facet normal 0.024318692553 0.990354694020 -0.136404476555
    outer loop
      vertex 183.217258456444 22.696508215623 187.076982265994
      vertex 200.000000000000 20.195133889530 171.908026482392
      vertex 165.235301376114 21.698188288276 176.622864131933
    endloop
  endfacet
  facet normal 0.024318692553 0.990354694020 -0.136404476555
    outer loop
      vertex 183.217258456444 22.696508215623 187.076982265994
      vertex 165.235301376114 21.698188288276 176.622864131933
      vertex 165.529916280461 24.910755817237 200.000000000000
    endloop
  endfacet
  facet normal -0.713705879343 -0.675402791601 0.185620545439
    outer loop
      vertex 179.573335060600 178.414090371450 73.560349523081
      vertex 140.014328135368 200.000000000000 -0.000000000000
      vertex 200.000000000000 136.612452275066 -0.000000000000
    endloop
  endfacet
  facet normal -0.713705879343 -0.675402791601 0.185620545439
    outer loop
      vertex 179.573335060600 178.414090371450 73.560349523081
      vertex 200.000000000000 136.612452275066 -0.000000000000
      vertex 200.000000000000 190.022848527184 194.340182784567
    endloop
  endfacet
  facet normal -0.713705879343 -0.675402791601 0.185620545439
    outer loop
      vertex 179.573335060600 178.414090371450 73.560349523081
      vertex 200.000000000000 190.022848527184 194.340182784567
      vertex 190.467730802386 200.000000000000 193.991942169799
    endloop
  endfacet
  facet normal -0.713705879343 -0.675402791601 0.185620545439
    outer loop
      vertex 179.573335060600 178.414090371450 73.560349523081
      vertex 190.467730802386 200.000000000000 193.991942169799
      vertex 140.014328135368 200.000000000000 -0.000000000000
    endloop
  endfacet
  facet normal 0.170730151667 0.975851103231 -0.136256521441
    outer loop
      vertex 68.091979277315 38.171428547144 172.880918942582
      vertex -0.000000000000 53.871062997667 200.000000000000
      vertex 165.529916280461 24.910755817237 200.000000000000
    endloop
  endfacet
  facet normal 0.170730151667 0.975851103231 -0.136256521441
    outer loop
      vertex 68.091979277315 38.171428547144 172.880918942582
      vertex 165.529916280461 24.910755817237 200.000000000000
      vertex 165.235301376114 21.698188288276 176.622864131933
    endloop
  endfacet
  facet normal 0.170730151667 0.975851103231 -0.136256521441
    outer loop
      vertex 68.091979277315 38.171428547144 172.880918942582
      vertex 165.235301376114 21.698188288276 176.622864131933
      vertex -0.000000000000 43.276683386075 124.124460813594
    endloop
  endfacet
  facet normal 0.170730151667 0.975851103231 -0.136256521441
    outer loop
      vertex 68.091979277315 38.171428547144 172.880918942582
      vertex -0.000000000000 43.276683386075 124.124460813594
      vertex -0.000000000000 53.871062997667 200.000000000000
    endloop
  endfacet
  facet normal -0.723249012140 -0.690038203329 0.027534421828
    outer loop
      vertex 195.244527297953 195.116152896595 197.070716315741
      vertex 200.000000000000 190.022848527184 194.340182784567
      vertex 200.000000000000 190.248690797836 200.000000000000
    endloop
  endfacet
  facet normal -0.723249012140 -0.690038203329 0.027534421827
    outer loop
      vertex 195.244527297953 195.116152896595 197.070716315741
      vertex 200.000000000000 190.248690797836 200.000000000000
      vertex 190.696460321381 200.000000000000 200.000000000000
    endloop
  endfacet
  facet normal -0.723249012140 -0.690038203329 0.027534421827
    outer loop
      vertex 195.244527297953 195.116152896595 197.070716315741
      vertex 190.696460321381 200.000000000000 200.000000000000
      vertex 190.467730802386 200.000000000000 193.991942169799
    endloop
  endfacet
  facet normal -0.723249012140 -0.690038203329 0.027534421827
    outer loop
      vertex 195.244527297953 195.116152896595 197.070716315741
      vertex 190.467730802386 200.000000000000 193.991942169799
      vertex 200.000000000000 190.022848527184 194.340182784567
    endloop
  endfacet
  facet normal -0.067958354025 -0.979665366123 -0.188778792603
    outer loop
      vertex 106.069902262259 44.779116232046 78.143568183933
      vertex 200.000000000000 53.321332692080 -0.000000000000
      vertex 200.000000000000 20.195133889530 171.908026482392
    endloop
  endfacet
  facet normal -0.067958354025 -0.979665366123 -0.188778792603
    outer loop
      vertex 106.069902262259 44.779116232046 78.143568183933
      vertex 200.000000000000 20.195133889530 171.908026482392
      vertex 165.235301376114 21.698188288276 176.622864131933
    endloop
  endfacet
  facet normal -0.067958354025 -0.979665366123 -0.188778792603
    outer loop
      vertex 106.069902262259 44.779116232046 78.143568183933
      vertex 165.235301376114 21.698188288276 176.622864131933
      vertex -0.000000000000 43.276683386075 124.124460813594
    endloop
  endfacet
  facet normal -0.067958354025 -0.979665366123 -0.188778792603
    outer loop
      vertex 106.069902262259 44.779116232046 78.143568183933
      vertex -0.000000000000 43.276683386075 124.124460813594
      vertex -0.000000000000 67.195121921530 -0.000000000000
    endloop
  endfacet
  facet normal -0.067958354025 -0.979665366123 -0.188778792603
    outer loop
      vertex 106.069902262259 44.779116232046 78.143568183933
      vertex -0.000000000000 67.195121921530 -0.000000000000
      vertex 200.000000000000 53.321332692080 -0.000000000000
    endloop
  endfacet
endsoliddart
