soliddart
  facet normal 1.000000000000 -0.000000000000 0.000000000000
    outer loop
      vertex 200.000000000000 195.259541921262 196.762192504084
      vertex 200.000000000000 200.000000000000 192.822346474242
      vertex 200.000000000000 200.000000000000 200.000000000000
    endloop
  endfacet
  facet normal 1.000000000000 0.000000000000 -0.000000000000
    outer loop
      vertex 200.000000000000 195.259541921262 196.762192504084
      vertex 200.000000000000 200.000000000000 200.000000000000
      vertex 200.000000000000 190.248690797836 200.000000000000
    endloop
  endfacet
  facet normal 1.000000000000 0.000000000000 0.000000000000
    outer loop
      vertex 200.000000000000 195.259541921262 196.762192504084
      vertex 200.000000000000 190.248690797836 200.000000000000
      vertex 200.000000000000 190.022848527184 194.340182784567
    endloop
  endfacet
  facet normal 1.000000000000 0.000000000000 0.000000000000
    outer loop
      vertex 200.000000000000 195.259541921262 196.762192504084
      vertex 200.000000000000 190.022848527184 194.340182784567
      vertex 200.000000000000 200.000000000000 192.822346474242
    endloop
  endfacet
  facet normal -0.000000000000 1.000000000000 0.000000000000
    outer loop
      vertex 195.428188114182 200.000000000000 196.680529758847
      vertex 200.000000000000 200.000000000000 200.000000000000
      vertex 200.000000000000 200.000000000000 192.822346474242
    endloop
  endfacet
  facet normal 0.000000000000 1.000000000000 0.000000000000
    outer loop
      vertex 195.428188114182 200.000000000000 196.680529758847
      vertex 200.000000000000 200.000000000000 192.822346474242
      vertex 190.467730802386 200.000000000000 193.991942169799
    endloop
  endfacet
  facet normal 0.000000000000 1.000000000000 -0.000000000000
    outer loop
      vertex 195.428188114182 200.000000000000 196.680529758847
      vertex 190.467730802386 200.000000000000 193.991942169799
      vertex 190.696460321381 200.000000000000 200.000000000000
    endloop
  endfacet
  facet normal 0.000000000000 1.000000000000 -0.000000000000
    outer loop
      vertex 195.428188114182 200.000000000000 196.680529758847
      vertex 190.696460321381 200.000000000000 200.000000000000
      vertex 200.000000000000 200.000000000000 200.000000000000
    endloop
  endfacet
  facet normal 0.000000000000 -0.000000000000 1.000000000000
    outer loop
      vertex 196.898820107127 196.749563599279 200.000000000000
      vertex 200.000000000000 200.000000000000 200.000000000000
      vertex 190.696460321381 200.000000000000 200.000000000000
    endloop
  endfacet
  facet normal 0.000000000000 0.000000000000 1.000000000000
    outer loop
      vertex 196.898820107127 196.749563599279 200.000000000000
      vertex 190.696460321381 200.000000000000 200.000000000000
      vertex 200.000000000000 190.248690797836 200.000000000000
    endloop
  endfacet
  facet normal -0.000000000000 0.000000000000 1.000000000000
    outer loop
      vertex 196.898820107127 196.749563599279 200.000000000000
      vertex 200.000000000000 190.248690797836 200.000000000000
      vertex 200.000000000000 200.000000000000 200.000000000000
    endloop
  endfacet
  facet normal -0.120420157681 -0.149306288971 -0.981430903170
    outer loop
      vertex 196.822576934129 196.674282842395 193.718157142869
      vertex 200.000000000000 200.000000000000 192.822346474242
      vertex 200.000000000000 190.022848527184 194.340182784567
    endloop
  endfacet
  facet normal -0.120420157681 -0.149306288971 -0.981430903170
    outer loop
      vertex 196.822576934129 196.674282842395 193.718157142869
      vertex 200.000000000000 190.022848527184 194.340182784567
      vertex 190.467730802386 200.000000000000 193.991942169799
    endloop
  endfacet
  facet normal -0.120420157681 -0.149306288971 -0.981430903170
    outer loop
      vertex 196.822576934129 196.674282842395 193.718157142869
      vertex 190.467730802386 200.000000000000 193.991942169799
      vertex 200.000000000000 200.000000000000 192.822346474242
    endloop
  endfacet
  facet normal -0.723249012140 -0.690038203329 0.027534421828
    outer loop
      vertex 195.244527297953 195.116152896595 197.070716315741
      vertex 200.000000000000 190.022848527184 194.340182784567
      vertex 200.000000000000 190.248690797836 200.000000000000
    endloop
  endfacet
  facet normal -0.723249012140 -0.690038203329 0.027534421827
    outer loop
      vertex 195.244527297953 195.116152896595 197.070716315741
      vertex 200.000000000000 190.248690797836 200.000000000000
      vertex 190.696460321381 200.000000000000 200.000000000000
    endloop
  endfacet
  facet normal -0.723249012140 -0.690038203329 0.027534421827
    outer loop
      vertex 195.244527297953 195.116152896595 197.070716315741
      vertex 190.696460321381 200.000000000000 200.000000000000
      vertex 190.467730802386 200.000000000000 193.991942169799
    endloop
  endfacet
  facet normal -0.723249012140 -0.690038203329 0.027534421827
    outer loop
      vertex 195.244527297953 195.116152896595 197.070716315741
      vertex 190.467730802386 200.000000000000 193.991942169799
      vertex 200.000000000000 190.022848527184 194.340182784567
    endloop
  endfacet
endsoliddart
