soliddart
  facet normal 1.000000000000 0.000000000000 0.000000000000
    outer loop
      vertex 120.000000000000 110.956783611899 110.961140638654
      vertex 120.000000000000 120.000000000000 120.000000000000
      vertex 120.000000000000 92.870350835697 120.000000000000
    endloop
  endfacet
  facet normal 1.000000000000 -0.000000000000 -0.000000000000
    outer loop
      vertex 120.000000000000 110.956783611899 110.961140638654
      vertex 120.000000000000 92.870350835697 120.000000000000
      vertex 120.000000000000 120.000000000000 92.883421915963
    endloop
  endfacet
  facet normal 1.000000000000 0.000000000000 -0.000000000000
    outer loop
      vertex 120.000000000000 110.956783611899 110.961140638654
      vertex 120.000000000000 120.000000000000 92.883421915963
      vertex 120.000000000000 120.000000000000 120.000000000000
    endloop
  endfacet
  facet normal -0.000000000000 1.000000000000 0.000000000000
    outer loop
      vertex 110.959595170936 120.000000000000 110.961140638654
      vertex 120.000000000000 120.000000000000 120.000000000000
      vertex 120.000000000000 120.000000000000 92.883421915963
    endloop
  endfacet
  facet normal 0.000000000000 1.000000000000 0.000000000000
    outer loop
      vertex 110.959595170936 120.000000000000 110.961140638654
      vertex 120.000000000000 120.000000000000 92.883421915963
      vertex 92.878785512809 120.000000000000 120.000000000000
    endloop
  endfacet
  facet normal 0.000000000000 1.000000000000 -0.000000000000
    outer loop
      vertex 110.959595170936 120.000000000000 110.961140638654
      vertex 92.878785512809 120.000000000000 120.000000000000
      vertex 120.000000000000 120.000000000000 120.000000000000
    endloop
  endfacet
  facet normal 0.000000000000 0.000000000000 1.000000000000
    outer loop
      vertex 110.959595170936 110.956783611899 120.000000000000
      vertex 120.000000000000 120.000000000000 120.000000000000
      vertex 92.878785512809 120.000000000000 120.000000000000
    endloop
  endfacet
  facet normal -0.000000000000 -0.000000000000 1.000000000000
    outer loop
      vertex 110.959595170936 110.956783611899 120.000000000000
      vertex 92.878785512809 120.000000000000 120.000000000000
      vertex 120.000000000000 92.870350835697 120.000000000000
    endloop
  endfacet
  facet normal 0.000000000000 -0.000000000000 1.000000000000
    outer loop
      vertex 110.959595170936 110.956783611899 120.000000000000
      vertex 120.000000000000 92.870350835697 120.000000000000
      vertex 120.000000000000 120.000000000000 120.000000000000
    endloop
  endfacet
  facet normal -0.577377186990 -0.577197678950 -0.577475907167
    outer loop
      vertex 110.959595170936 110.956783611899 110.961140638654
      vertex 120.000000000000 120.000000000000 92.883421915963
      vertex 120.000000000000 92.870350835697 120.000000000000
    endloop
  endfacet
  facet normal -0.577377186990 -0.577197678950 -0.577475907167
    outer loop
      vertex 110.959595170936 110.956783611899 110.961140638654
      vertex 120.000000000000 92.870350835697 120.000000000000
      vertex 92.878785512809 120.000000000000 120.000000000000
    endloop
  endfacet
  facet normal -0.577377186990 -0.577197678950 -0.577475907167
    outer loop
      vertex 110.959595170936 110.956783611899 110.961140638654
      vertex 92.878785512809 120.000000000000 120.000000000000
      vertex 120.000000000000 120.000000000000 92.883421915963
    endloop
  endfacet
endsoliddart
