soliddart
  facet normal -1.000000000000 -0.000000000000 0.000000000000
    outer loop
      vertex 0.000000000000 75.000000000000 75.000000000000
      vertex 0.000000000000 0.000000000000 0.000000000000
      vertex 0.000000000000 0.000000000000 150.000000000000
    endloop
  endfacet
  facet normal -1.000000000000 0.000000000000 0.000000000000
    outer loop
      vertex 0.000000000000 75.000000000000 75.000000000000
      vertex 0.000000000000 0.000000000000 150.000000000000
      vertex 0.000000000000 150.000000000000 150.000000000000
    endloop
  endfacet
  facet normal -1.000000000000 0.000000000000 0.000000000000
    outer loop
      vertex 0.000000000000 75.000000000000 75.000000000000
      vertex 0.000000000000 150.000000000000 150.000000000000
      vertex 0.000000000000 150.000000000000 0.000000000000
    endloop
  endfacet
  facet normal -1.000000000000 -0.000000000000 -0.000000000000
    outer loop
      vertex 0.000000000000 75.000000000000 75.000000000000
      vertex 0.000000000000 150.000000000000 0.000000000000
      vertex 0.000000000000 0.000000000000 0.000000000000
    endloop
  endfacet
  facet normal 1.000000000000 0.000000000000 0.000000000000
    outer loop
      vertex 150.000000000000 57.896417578375 69.770762148198
      vertex 150.000000000000 89.733510063530 150.000000000000
      vertex 150.000000000000 0.000000000000 150.000000000000
    endloop
  endfacet
  facet normal 1.000000000000 -0.000000000000 0.000000000000
    outer loop
      vertex 150.000000000000 57.896417578375 69.770762148198
      vertex 150.000000000000 0.000000000000 150.000000000000
      vertex 150.000000000000 0.000000000000 0.000000000000
    endloop
  endfacet
  facet normal 1.000000000000 -0.000000000000 -0.000000000000
    outer loop
      vertex 150.000000000000 57.896417578375 69.770762148198
      vertex 150.000000000000 0.000000000000 0.000000000000
      vertex 150.000000000000 132.562582616108 -0.000000000000
    endloop
  endfacet
  facet normal 1.000000000000 0.000000000000 -0.000000000000
    outer loop
      vertex 150.000000000000 57.896417578375 69.770762148198
      vertex 150.000000000000 132.562582616108 -0.000000000000
      vertex 150.000000000000 134.787173457869 13.028397215005
    endloop
  endfacet
  facet normal 1.000000000000 0.000000000000 0.000000000000
    outer loop
      vertex 150.000000000000 57.896417578375 69.770762148198
      vertex 150.000000000000 134.787173457869 13.028397215005
      vertex 150.000000000000 89.733510063530 150.000000000000
    endloop
  endfacet
  facet normal 0.000000000000 -1.000000000000 0.000000000000
    outer loop
      vertex 75.000000000000 0.000000000000 75.000000000000
      vertex 150.000000000000 0.000000000000 0.000000000000
      vertex 150.000000000000 0.000000000000 150.000000000000
    endloop
  endfacet
  facet normal 0.000000000000 -1.000000000000 0.000000000000
    outer loop
      vertex 75.000000000000 0.000000000000 75.000000000000
      vertex 150.000000000000 0.000000000000 150.000000000000
      vertex 0.000000000000 0.000000000000 150.000000000000
    endloop
  endfacet
  facet normal -0.000000000000 -1.000000000000 -0.000000000000
    outer loop
      vertex 75.000000000000 0.000000000000 75.000000000000
      vertex 0.000000000000 0.000000000000 150.000000000000
      vertex 0.000000000000 0.000000000000 0.000000000000
    endloop
  endfacet
  facet normal 0.000000000000 -1.000000000000 -0.000000000000
    outer loop
      vertex 75.000000000000 0.000000000000 75.000000000000
      vertex 0.000000000000 0.000000000000 0.000000000000
      vertex 150.000000000000 0.000000000000 0.000000000000
    endloop
  endfacet
  facet normal 0.000000000000 1.000000000000 -0.000000000000
    outer loop
      vertex 57.820441225995 150.000000000000 69.726951571970
      vertex 0.000000000000 150.000000000000 0.000000000000
      vertex 0.000000000000 150.000000000000 150.000000000000
    endloop
  endfacet
  facet normal 0.000000000000 1.000000000000 -0.000000000000
    outer loop
      vertex 57.820441225995 150.000000000000 69.726951571970
      vertex 0.000000000000 150.000000000000 150.000000000000
      vertex 89.414237758678 150.000000000000 150.000000000000
    endloop
  endfacet
  facet normal -0.000000000000 1.000000000000 0.000000000000
    outer loop
      vertex 57.820441225995 150.000000000000 69.726951571970
      vertex 89.414237758678 150.000000000000 150.000000000000
      vertex 134.800920093087 150.000000000000 12.743099572599
    endloop
  endfacet
  facet normal 0.000000000000 1.000000000000 0.000000000000
    outer loop
      vertex 57.820441225995 150.000000000000 69.726951571970
      vertex 134.800920093087 150.000000000000 12.743099572599
      vertex 132.633948876198 150.000000000000 -0.000000000000
    endloop
  endfacet
  facet normal 0.000000000000 1.000000000000 0.000000000000
    outer loop
      vertex 57.820441225995 150.000000000000 69.726951571970
      vertex 132.633948876198 150.000000000000 -0.000000000000
      vertex 0.000000000000 150.000000000000 0.000000000000
    endloop
  endfacet
  facet normal -0.000000000000 -0.000000000000 -1.000000000000
    outer loop
      vertex 74.531100019820 74.531261186325 0.000000000000
      vertex 150.000000000000 0.000000000000 0.000000000000
      vertex 0.000000000000 0.000000000000 0.000000000000
    endloop
  endfacet
  facet normal -0.000000000000 0.000000000000 -1.000000000000
    outer loop
      vertex 74.531100019820 74.531261186325 0.000000000000
      vertex 0.000000000000 0.000000000000 0.000000000000
      vertex 0.000000000000 150.000000000000 0.000000000000
    endloop
  endfacet
  facet normal -0.000000000000 0.000000000000 -1.000000000000
    outer loop
      vertex 74.531100019820 74.531261186325 0.000000000000
      vertex 0.000000000000 150.000000000000 0.000000000000
      vertex 132.633948876198 150.000000000000 -0.000000000000
    endloop
  endfacet
  facet normal 0.000000000000 -0.000000000000 -1.000000000000
    outer loop
      vertex 74.531100019820 74.531261186325 0.000000000000
      vertex 132.633948876198 150.000000000000 -0.000000000000
      vertex 150.000000000000 132.562582616108 -0.000000000000
    endloop
  endfacet
  facet normal 0.000000000000 -0.000000000000 -1.000000000000
    outer loop
      vertex 74.531100019820 74.531261186325 0.000000000000
      vertex 150.000000000000 132.562582616108 -0.000000000000
      vertex 150.000000000000 0.000000000000 0.000000000000
    endloop
  endfacet
  facet normal 0.000000000000 0.000000000000 1.000000000000
    outer loop
      vertex 70.160475523528 70.151077759958 150.000000000000
      vertex 0.000000000000 150.000000000000 150.000000000000
      vertex 0.000000000000 0.000000000000 150.000000000000
    endloop
  endfacet
  facet normal -0.000000000000 0.000000000000 1.000000000000
    outer loop
      vertex 70.160475523528 70.151077759958 150.000000000000
      vertex 0.000000000000 0.000000000000 150.000000000000
      vertex 150.000000000000 0.000000000000 150.000000000000
    endloop
  endfacet
  facet normal -0.000000000000 0.000000000000 1.000000000000
    outer loop
      vertex 70.160475523528 70.151077759958 150.000000000000
      vertex 150.000000000000 0.000000000000 150.000000000000
      vertex 150.000000000000 89.733510063530 150.000000000000
    endloop
  endfacet
  facet normal 0.000000000000 -0.000000000000 1.000000000000
    outer loop
      vertex 70.160475523528 70.151077759958 150.000000000000
      vertex 150.000000000000 89.733510063530 150.000000000000
      vertex 89.414237758678 150.000000000000 150.000000000000
    endloop
  endfacet
  facet normal 0.000000000000 -0.000000000000 1.000000000000
    outer loop
      vertex 70.160475523528 70.151077759958 150.000000000000
      vertex 89.414237758678 150.000000000000 150.000000000000
      vertex 0.000000000000 150.000000000000 150.000000000000
    endloop
  endfacet
  facet normal -0.686808361065 -0.690446848865 -0.227106635886
    outer loop
      vertex 128.781925555024 128.895854469422 95.106111470182
      vertex 89.414237758678 150.000000000000 150.000000000000
      vertex 134.800920093087 150.000000000000 12.743099572599
    endloop
  endfacet
  facet normal -0.686808361065 -0.690446848865 -0.227106635886
    outer loop
      vertex 128.781925555024 128.895854469422 95.106111470182
      vertex 134.800920093087 150.000000000000 12.743099572599
      vertex 150.000000000000 134.787173457869 13.028397215005
    endloop
  endfacet
  facet normal -0.686808361065 -0.690446848865 -0.227106635886
    outer loop
      vertex 128.781925555024 128.895854469422 95.106111470182
      vertex 150.000000000000 134.787173457869 13.028397215005
      vertex 150.000000000000 89.733510063530 150.000000000000
    endloop
  endfacet
  facet normal -0.686808361065 -0.690446848865 -0.227106635886
    outer loop
      vertex 128.781925555024 128.895854469422 95.106111470182
      vertex 150.000000000000 89.733510063530 150.000000000000
      vertex 89.414237758678 150.000000000000 150.000000000000
    endloop
  endfacet
  facet normal 0.703467219146 0.700588133131 -0.119624994471
    outer loop
      vertex 141.878623711979 141.792808813386 6.298557841434
      vertex 150.000000000000 134.787173457869 13.028397215005
      vertex 150.000000000000 132.562582616108 -0.000000000000
    endloop
  endfacet
  facet normal 0.703467219146 0.700588133131 -0.119624994471
    outer loop
      vertex 141.878623711979 141.792808813386 6.298557841434
      vertex 150.000000000000 132.562582616108 -0.000000000000
      vertex 132.633948876198 150.000000000000 -0.000000000000
    endloop
  endfacet
  facet normal 0.703467219146 0.700588133131 -0.119624994471
    outer loop
      vertex 141.878623711979 141.792808813386 6.298557841434
      vertex 132.633948876198 150.000000000000 -0.000000000000
      vertex 134.800920093087 150.000000000000 12.743099572599
    endloop
  endfacet
  facet normal 0.703467219146 0.700588133131 -0.119624994471
    outer loop
      vertex 141.878623711979 141.792808813386 6.298557841434
      vertex 134.800920093087 150.000000000000 12.743099572599
      vertex 150.000000000000 134.787173457869 13.028397215005
    endloop
  endfacet
endsoliddart
